<svg xmlns="http://www.w3.org/2000/svg" version="1.1" xmlns:xlink="http://www.w3.org/1999/xlink" xmlns:svgjs="http://svgjs.dev/svgjs" width="1000" height="623" viewBox="0 0 1000 623"><g transform="matrix(1,0,0,1,-0.6060606060606233,103.95100809716598)"><svg viewBox="0 0 396 247" data-background-color="#ffffff" preserveAspectRatio="xMidYMid meet" height="623" width="1000" xmlns="http://www.w3.org/2000/svg" xmlns:xlink="http://www.w3.org/1999/xlink"><defs></defs><g id="tight-bounds" transform="matrix(1,0,0,1,0.2400000000000091,-0.09999999999999432)"><svg viewBox="0 0 395.52 247.2" height="247.2" width="395.52"><g><svg></svg></g><g><svg viewBox="0 0 395.52 247.2" height="247.2" width="395.52"><g transform="matrix(1,0,0,1,75.54432000000001,49.821505511811026)"><svg viewBox="0 0 244.43135999999996 147.55698897637794" height="147.55698897637794" width="244.43135999999996"><g><svg viewBox="0 0 244.43135999999996 147.55698897637794" height="147.55698897637794" width="244.43135999999996"><g><svg viewBox="0 0 244.43136 147.55698897637797" height="147.55698897637794" width="244.43135999999996"><g><svg viewBox="0 0 244.43136 147.55698897637797" height="147.55698897637797" width="244.43136"><g><svg viewBox="0 0 244.43136 147.55698897637797" height="147.55698897637797" width="244.43136"><g><svg viewBox="0 0 244.43136 147.55698897637797" height="147.55698897637797" width="244.43136"><g transform="matrix(1,0,0,1,0,0)"><svg width="244.43136" viewBox="4.420000076293945 -33.08000183105469 55.80999755859375 33.69000244140625" height="147.55698897637797" data-palette-color="#ffffff"><path d="M10.79 0L4.42 0Q4.57-0.83 4.57-1.81L4.57-1.81 4.57-32.47 9.45-32.47 22.39-12.11 22.39-30.81Q22.39-32.15 22.14-32.47L22.14-32.47 28.74-32.47Q28.61-31.49 28.61-30.32L28.61-30.32 28.61 0 23.54 0 10.79-19.56 10.79 0ZM51.93-33.08L51.93-33.08Q56.49-33.08 59.71-31.49L59.71-31.49 59.71-24.02 59.67-23.97Q58.3-26.07 53.9-26.76L53.9-26.76Q52.61-26.98 50.63-26.98 48.65-26.98 46.75-26.23 44.85-25.49 43.63-24.12L43.63-24.12Q41.26-21.46 41.26-16.53L41.26-16.53Q41.26-10.79 44.26-7.98L44.26-7.98Q46.75-5.64 50.85-5.64L50.85-5.64Q55.49-5.64 58.37-7.62L58.37-7.62Q59.42-8.33 60.15-9.38L60.15-9.38 60.23-9.33 60.23-2.49Q56.49 0.61 50.17 0.61L50.17 0.61Q42.72 0.61 38.5-4.13L38.5-4.13Q34.45-8.64 34.45-16.09L34.45-16.09Q34.45-23.97 38.89-28.52L38.89-28.52Q43.38-33.08 51.93-33.08Z" opacity="1" transform="matrix(1,0,0,1,0,0)" fill="#ffffff" class="undefined-text-0" data-fill-palette-color="primary" id="text-0"></path></svg></g></svg></g></svg></g></svg></g><g></g></svg></g></svg></g></svg></g><g><path d="M141.726 14.987A122.216 122.216 0 0 1 253.794 14.987L240.488 14.987A108.909 108.909 0 0 0 155.032 14.987L141.726 14.987M141.726 232.213A122.216 122.216 0 0 0 253.794 232.213L240.488 232.213A108.909 108.909 0 0 1 155.032 232.213L141.726 232.213" fill="#ffffff" stroke="transparent" data-fill-palette-color="tertiary"></path></g></svg></g></svg><rect width="395.52" height="247.2" fill="none" stroke="none" visibility="hidden"></rect></g></svg></g></svg>